{"accessors" : [{"bufferView" : 0, "byteOffset" : 0, "componentType" : 5123, "count" : 756, "type" : "SCALAR", "max" : [629], "min" : [0]}, {"bufferView" : 1, "byteOffset" : 0, "componentType" : 5126, "count" : 630, "type" : "VEC3", "max" : [0.1861869990825653, 0.4659790098667145, 0.22206400334835052], "min" : [-0.18766899406909943, 0.3422139883041382, -0.1938530057668686], "name" : "POSITION"}, {"bufferView" : 1, "byteOffset" : 12, "componentType" : 5126, "count" : 630, "type" : "VEC2", "max" : [0.9692000150680542, -0.007799999788403511], "min" : [0.020899999886751175, -0.9966999888420105], "name" : "TEXCOORD_0"}, {"bufferView" : 1, "byteOffset" : 20, "componentType" : 5126, "count" : 630, "type" : "VEC3", "max" : [0.9723843336105347, 1.0000022649765015, 0.9876982569694519], "min" : [-0.9741124510765076, -1.0000028610229492, -0.9828174710273743], "name" : "NORMAL"}, {"bufferView" : 0, "byteOffset" : 1512, "componentType" : 5123, "count" : 36522, "type" : "SCALAR", "max" : [30399], "min" : [0]}, {"bufferView" : 2, "byteOffset" : 0, "componentType" : 5126, "count" : 30400, "type" : "VEC3", "max" : [0.25829100608825684, 0.45223599672317505, 0.1896969974040985], "min" : [-0.2587209939956665, -1.3773080110549927, -0.20974700152873993], "name" : "POSITION"}, {"bufferView" : 2, "byteOffset" : 12, "componentType" : 5126, "count" : 30400, "type" : "VEC2", "max" : [0.9933000206947327, -0.007400000002235174], "min" : [0.007400000002235174, -0.991599977016449], "name" : "TEXCOORD_0"}, {"bufferView" : 2, "byteOffset" : 20, "componentType" : 5126, "count" : 30400, "type" : "VEC3", "max" : [0.9998617768287659, 0.9999839663505554, 0.999648928642273], "min" : [-0.9999896287918091, -1.0000044107437134, -0.999907374382019], "name" : "NORMAL"}], "asset" : {"generator" : "Aspose.3D 22.7", "version" : "2.0"}, "buffers" : [{"uri" : "data:application/octet-stream;base64,", "byteLength" : 1267464}], "bufferViews" : [{"buffer" : 0, "byteOffset" : 0, "byteLength" : 74556, "target" : 34963}, {"buffer" : 0, "byteOffset" : 74560, "byteLength" : 24192, "byteStride" : 32, "target" : 34962}, {"buffer" : 0, "byteOffset" : 98756, "byteLength" : 1168704, "byteStride" : 32, "target" : 34962}], "materials" : [{"name" : "Hat", "pbrMetallicRoughness" : {"baseColorFactor" : [0.039639, 0.039639, 0.039639, 1], "metallicFactor" : 0, "roughnessFactor" : 0}, "emissiveFactor" : [0, 0, 0], "alphaMode" : "OPAQUE", "doubleSided" : false}, {"name" : "Skin", "pbrMetallicRoughness" : {"baseColorFactor" : [0.78737, 0.59686, 0.47762, 1], "metallicFactor" : 0, "roughnessFactor" : 0}, "emissiveFactor" : [0, 0, 0], "alphaMode" : "OPAQUE", "doubleSided" : false}], "meshes" : [{"primitives" : [{"attributes" : {"POSITION" : 1, "TEXCOORD_0" : 2, "NORMAL" : 3}, "indices" : 0, "material" : 0, "mode" : 4}], "name" : ""}, {"primitives" : [{"attributes" : {"POSITION" : 5, "TEXCOORD_0" : 6, "NORMAL" : 7}, "indices" : 4, "material" : 1, "mode" : 4}], "name" : ""}], "nodes" : [{"mesh" : 0, "name" : "Hat"}, {"mesh" : 1, "name" : "Worker"}], "scene" : 0, "scenes" : [{"nodes" : [0, 1]}]}